Coordinates
version=1
nRows=18
nColumns=22
inDegrees=yes

Units are S.I. units (second, meters, Newtons, ...)
If the header above contains a line with 'inDegrees', this indicates whether rotational values are in degrees (yes) or radians (no).

endheader
time	pelvis_tilt	pelvis_list	pelvis_rotation	pelvis_tx	pelvis_ty	pelvis_tz	hip_flexion_r	hip_adduction_r	hip_rotation_r	knee_angle_r	ankle_angle_r	subtalar_angle_r	hip_flexion_l	hip_adduction_l	hip_rotation_l	knee_angle_l	ankle_angle_l	subtalar_angle_l	lumbar_extension	lumbar_bending	lumbar_rotation
      2.05000000	      1.26693715	     -2.42507508	      4.79711371	      0.39955187	      0.89317506	      1.10233380	    -15.46099719	     -2.74149199	     -3.30226373	    -16.64990537	     13.49109863	      8.87995113	     25.12941508	    -13.84745903	    -43.11812152	    -19.64918396	      3.67270362	     -1.75192351	     -8.87215569	     -2.77071633	     15.67441466
      2.06000000	      1.17365210	     -2.48546153	      5.05915401	      0.40753388	      0.89280187	      1.09633777	    -15.78896807	     -3.01717008	     -3.18645825	    -16.88308416	     12.58336795	      9.70010572	     25.02532234	    -13.51267777	    -42.64324857	    -20.29374656	      3.64343995	     -2.44842260	     -8.53715636	     -2.73808035	     15.81908326
      2.07000000	      1.01990257	     -2.51174362	      5.33099300	      0.41565082	      0.89253411	      1.09010042	    -15.99901893	     -3.34415265	     -3.01756591	    -17.22225377	     11.55720011	     10.58612942	     24.95667636	    -13.07326607	    -42.05339391	    -20.82435463	      3.60365480	     -3.32691103	     -8.12880438	     -2.75893781	     15.93248583
      2.08000000	      0.85259703	     -2.53562202	      5.67119883	      0.42384319	      0.89245178	      1.08358922	    -16.13784680	     -3.66577666	     -2.87251169	    -17.66074078	     10.35121769	     11.46553160	     24.91627315	    -12.56773825	    -41.33064413	    -21.26964561	      3.42138551	     -4.33691193	     -7.71238478	     -2.78996034	     15.96752578
      2.09000000	      0.64947787	     -2.52342139	      6.01756308	      0.43218614	      0.89254693	      1.07688367	    -16.17303336	     -4.03376017	     -2.67684707	    -18.20676064	      8.98099730	     12.45733889	     24.89175836	    -12.00182818	    -40.61580052	    -21.64686415	      3.26138230	     -5.57058011	     -7.24569129	     -2.88234274	     16.03565655
      2.10000000	      0.46215889	     -2.49757385	      6.39427293	      0.44058880	      0.89290199	      1.06998952	    -16.12211314	     -4.40825157	     -2.43786799	    -18.90954753	      7.38660812	     13.47606117	     24.85269607	    -11.42048036	    -39.91950797	    -22.00743001	      3.07416518	     -6.90822152	     -6.80712953	     -2.99203409	     16.04164565
      2.11000000	      0.32362204	     -2.47966343	      6.85394486	      0.44902626	      0.89355392	      1.06288886	    -16.01994620	     -4.74480845	     -2.22836253	    -19.76200051	      5.56881371	     14.46721996	     24.78333030	    -10.83354503	    -39.12733739	    -22.37793575	      2.88276298	     -8.18848190	     -6.43370755	     -3.09306100	     15.98742741
      2.12000000	      0.24012474	     -2.46695777	      7.33491559	      0.45750490	      0.89452363	      1.05568529	    -15.84114180	     -5.05565386	     -1.95019821	    -20.79394535	      3.49943859	     15.46318328	     24.65308795	    -10.28459714	    -38.37223486	    -22.79331052	      2.77421541	     -9.40915167	     -6.12468162	     -3.18727254	     15.90921592
      2.13000000	      0.23168132	     -2.47066794	      7.85684996	      0.46596753	      0.89581085	      1.04837580	    -15.59056231	     -5.31944917	     -1.62894275	    -22.02278071	      1.20661374	     16.40590959	     24.44644388	     -9.77565240	    -37.59795923	    -23.25205152	      2.76013932	    -10.45589431	     -5.90557847	     -3.25137828	     15.80546242
      2.14000000	      0.29152523	     -2.49390599	      8.40788650	      0.47436786	      0.89737947	      1.04100220	    -15.23571640	     -5.53213216	     -1.24319322	    -23.48090846	     -1.28215191	     17.29013693	     24.15844020	     -9.30546442	    -36.80866031	    -23.72767109	      2.85687014	    -11.31836793	     -5.76648896	     -3.28230894	     15.68260361
      2.15000000	      0.43997797	     -2.55641543	      9.02198491	      0.48258851	      0.89920626	      1.03355560	    -14.78293511	     -5.65838830	     -0.84067804	    -25.18387720	     -3.92814467	     18.01285976	     23.78662228	     -8.88006204	    -35.95180386	    -24.20393834	      2.93951563	    -11.95049310	     -5.73934011	     -3.24558143	     15.51082126
      2.16000000	      0.62582633	     -2.64511008	      9.65616421	      0.49058330	      0.90116652	      1.02607891	    -14.15078778	     -5.72599529	     -0.36506836	    -27.17500979	     -6.65975396	     18.64423904	     23.35529145	     -8.48033765	    -35.09537533	    -24.62989904	      3.10298525	    -12.45085643	     -5.76189393	     -3.15725325	     15.31546462
      2.17000000	      0.84372831	     -2.75550433	     10.32414387	      0.49829735	      0.90318835	      1.01860271	    -13.33757582	     -5.72746515	      0.15419711	    -29.44951891	     -9.40055638	     19.08879238	     22.87547316	     -8.09937908	    -34.24457960	    -24.99822333	      3.28704515	    -12.80402270	     -5.83132141	     -3.02478584	     15.06587179
      2.18000000	      1.08261849	     -2.88256526	     11.02136891	      0.50569302	      0.90519101	      1.01115730	    -12.33069608	     -5.67171472	      0.66796589	    -32.00680301	    -12.10529236	     19.30600981	     22.35235249	     -7.72968247	    -33.42125276	    -25.28467323	      3.47856850	    -13.03614924	     -5.93924695	     -2.85602999	     14.77799280
      2.19000000	      1.31597645	     -3.03054952	     11.74057984	      0.51275529	      0.90707726	      1.00376079	    -11.11484973	     -5.55639270	      1.16687459	    -34.80706923	    -14.70116852	     19.29867995	     21.80325001	     -7.36364716	    -32.62997582	    -25.45979438	      3.72123017	    -13.19391215	     -6.04921274	     -2.64498061	     14.43636645
      2.20000000	      1.55291549	     -3.16215407	     12.48915617	      0.51949602	      0.90880953	      0.99642885	     -9.73847470	     -5.42588895	      1.57674032	    -37.78230764	    -17.17730164	     19.02325948	     21.22552835	     -6.97995647	    -31.90415894	    -25.56493902	      3.96844506	    -13.28811542	     -6.18168293	     -2.44039718	     14.04970005
      2.21000000	      1.75857457	     -3.28068062	     13.25737655	      0.52594218	      0.91032536	      0.98917173	     -8.20237287	     -5.28256770	      1.91596984	    -40.84312228	    -19.44488776	     18.45370344	     20.63268099	     -6.55660990	    -31.21033747	    -25.54737745	      4.28041874	    -13.35435168	     -6.28864812	     -2.24305186	     13.60407626
      2.22000000	      1.96229194	     -3.35553897	     14.05006628	      0.53214868	      0.91167456	      0.98197350	     -6.59040811	     -5.16753144	      2.13528405	    -43.89070931	    -21.44127650	     17.66443936	     19.97994355	     -6.07816285	    -30.58765528	    -25.41301635	      4.60148654	    -13.38990611	     -6.40795658	     -2.08324108	     13.11614336
